<svg width="150" height="40" xmlns="http://www.w3.org/2000/svg">

 <g>
  <title>Layer 1</title>
  <text transform="matrix(0.70834 0 0 0.70834 17.7913 1.20147)" stroke="#000" font-style="normal" font-weight="bold" xml:space="preserve" text-anchor="start" font-family="'Andada Pro'" font-size="30" id="svg_4" y="36.23525" x="52.0589" stroke-width="0" fill="#000000">玄冥之境</text>
  <path stroke="#000" id="svg_5" d="m28.37284,2.25333c4.72713,0 8.56204,3.83861 8.56204,8.56574c0,4.72713 -3.83492,8.56204 -8.56204,8.56204c-4.72713,0 -8.56205,3.83861 -8.56205,8.56574c0,4.72713 3.83492,8.56204 8.56205,8.56204c9.45425,0 17.12778,-7.67353 17.12778,-17.12778c0,-9.45426 -7.67352,-17.12778 -17.12778,-17.12778l0,0zm0,5.88894c-1.47799,0 -2.67679,1.1988 -2.67679,2.67679c0,1.47799 1.1988,2.67679 2.67679,2.67679c1.47799,0 2.67679,-1.1988 2.67679,-2.67679c0,-1.47799 -1.1988,-2.67679 -2.67679,-2.67679zm0,17.12778c1.47722,0 2.67679,1.19956 2.67679,2.67679c0,1.47722 -1.19957,2.67679 -2.67679,2.67679c-1.47723,0 -2.67679,-1.19957 -2.67679,-2.67679c0,-1.47722 1.19957,-2.67679 2.67679,-2.67679zm16.74361,-5.87803c0,9.44723 -7.65849,17.10573 -17.10573,17.10573c-9.44723,0 -17.10573,-7.65849 -17.10573,-17.10573c0,-9.44723 7.6585,-17.10573 17.10573,-17.10573c9.44724,0 17.10573,7.6585 17.10573,17.10573z" stroke-width="0" fill="#000000"/>
 </g>
</svg>