<svg width="300" height="80" xmlns="http://www.w3.org/2000/svg">

 <g>
  <title>Layer 1</title>
  <text font-style="normal" font-weight="bold" xml:space="preserve" text-anchor="start" font-family="'Andada Pro'" font-size="30" id="svg_4" y="50.99999" x="132.99999" stroke-width="0" stroke="#000" fill="#000000">玄冥之境</text>
  <path id="svg_5" d="m62.50062,9.92c8.27975,0 14.99676,6.72348 14.99676,15.00323c0,8.27976 -6.71701,14.99676 -14.99676,14.99676c-8.27976,0 -14.99677,6.72348 -14.99677,15.00323c0,8.27976 6.71701,14.99676 14.99677,14.99676c16.55951,0 29.99999,-13.4405 29.99999,-30c0,-16.55951 -13.44048,-30 -29.99999,-30l0,0zm0,10.31472c-2.58875,0 -4.68851,2.09975 -4.68851,4.68851c0,2.58876 2.09975,4.68851 4.68851,4.68851c2.58876,0 4.68851,-2.09975 4.68851,-4.68851c0,-2.58876 -2.09975,-4.68851 -4.68851,-4.68851zm0,30c2.58742,0 4.68851,2.10108 4.68851,4.68851c0,2.58742 -2.10109,4.68851 -4.68851,4.68851c-2.58742,0 -4.68851,-2.10109 -4.68851,-4.68851c0,-2.58742 2.10109,-4.68851 4.68851,-4.68851zm29.32711,-10.29561c0,16.5472 -13.41415,29.96136 -29.96137,29.96136c-16.54721,0 -29.96137,-13.41416 -29.96137,-29.96136c0,-16.54721 13.41416,-29.96137 29.96137,-29.96137c16.54721,0 29.96137,13.41416 29.96137,29.96137z" stroke-width="0" stroke="#000" fill="#000000"/>
 </g>
</svg>